<svg width="52" height="40" viewBox="0 0 52 40" fill="none" xmlns="http://www.w3.org/2000/svg">
<g id="Group 1">
<path id="Vector" d="M26.8296 36.527L26.018 36.2305L25.2116 36.5414C23.7446 37.107 22.0687 37.1818 20.4078 36.5835L7.56815 31.9584C3.06636 30.3368 1.53826 24.7391 4.59163 21.055L17.4201 5.57648C19.4923 3.0762 22.5214 2.556 25.0996 3.4943L25.9079 3.78845L26.711 3.48049C29.3143 2.48224 32.4053 2.98235 34.5077 5.5193L47.335 20.9986C50.3882 24.6829 48.8598 30.2804 44.3581 31.9018L31.5182 36.5261C29.8999 37.109 28.2683 37.0527 26.8296 36.527Z" stroke="#2D6AF7" stroke-width="4.5"/>
<path id="Vector_2" d="M20.2963 18.3439C20.1279 18.024 20.0326 17.6596 20.0326 17.273C20.0326 16.0018 21.0632 14.9712 22.3344 14.9712C23.2533 14.9712 24.0465 15.5096 24.4156 16.2882L26.0174 19.4918L27.6192 16.2882C27.9882 15.5096 28.7814 14.9712 29.7003 14.9712C30.9715 14.9712 32.0021 16.0018 32.0021 17.273C32.0021 17.6596 31.9068 18.024 31.7384 18.3438L28.0985 25.6237C27.7294 26.4023 26.9362 26.9407 26.0174 26.9407C25.0985 26.9407 24.3053 26.4023 23.9362 25.6237L20.2963 18.3439Z" fill="#FCC419"/>
</g>
</svg>
